<mxfile host="app.diagrams.net" agent="Mozilla/5.0 (Macintosh; Intel Mac OS X 10_15_7) AppleWebKit/537.36 (KHTML, like Gecko) Chrome/127.0.0.0 Safari/537.36" version="24.7.7">
  <diagram name="第 1 页" id="ohR4oatk-YzPlOmh342K">
    <mxGraphModel dx="928" dy="625" grid="0" gridSize="10" guides="1" tooltips="1" connect="1" arrows="1" fold="1" page="0" pageScale="1" pageWidth="827" pageHeight="1169" math="0" shadow="0">
      <root>
        <mxCell id="0" />
        <mxCell id="1" parent="0" />
        <mxCell id="F1SDGT6u73Tulq20PvmU-2" value="" style="ellipse;whiteSpace=wrap;html=1;fillColor=none;" vertex="1" parent="1">
          <mxGeometry x="269" y="154" width="327" height="165" as="geometry" />
        </mxCell>
        <mxCell id="F1SDGT6u73Tulq20PvmU-8" value="" style="ellipse;whiteSpace=wrap;html=1;fillColor=#d5e8d4;strokeColor=#82b366;" vertex="1" parent="1">
          <mxGeometry x="178" y="233" width="79" height="44" as="geometry" />
        </mxCell>
        <mxCell id="F1SDGT6u73Tulq20PvmU-1" value="" style="ellipse;whiteSpace=wrap;html=1;fillColor=none;" vertex="1" parent="1">
          <mxGeometry x="60" y="156" width="327" height="165" as="geometry" />
        </mxCell>
        <mxCell id="F1SDGT6u73Tulq20PvmU-3" value="线性方程组" style="text;html=1;align=center;verticalAlign=middle;whiteSpace=wrap;rounded=0;" vertex="1" parent="1">
          <mxGeometry x="144" y="182" width="89" height="30" as="geometry" />
        </mxCell>
        <mxCell id="F1SDGT6u73Tulq20PvmU-4" value="二次型" style="text;html=1;align=center;verticalAlign=middle;whiteSpace=wrap;rounded=0;" vertex="1" parent="1">
          <mxGeometry x="429" y="182" width="56" height="30" as="geometry" />
        </mxCell>
        <mxCell id="F1SDGT6u73Tulq20PvmU-5" value="矩阵" style="text;html=1;align=center;verticalAlign=middle;whiteSpace=wrap;rounded=0;fillColor=#dae8fc;strokeColor=#6c8ebf;" vertex="1" parent="1">
          <mxGeometry x="308" y="221.5" width="40" height="30" as="geometry" />
        </mxCell>
        <mxCell id="F1SDGT6u73Tulq20PvmU-6" value="&lt;div&gt;向量组&lt;/div&gt;" style="text;html=1;align=center;verticalAlign=middle;whiteSpace=wrap;rounded=0;" vertex="1" parent="1">
          <mxGeometry x="193.5" y="242.5" width="48" height="25" as="geometry" />
        </mxCell>
        <mxCell id="F1SDGT6u73Tulq20PvmU-10" value="" style="ellipse;whiteSpace=wrap;html=1;fillColor=#dae8fc;strokeColor=#6c8ebf;" vertex="1" parent="1">
          <mxGeometry x="399" y="218" width="79" height="44" as="geometry" />
        </mxCell>
        <mxCell id="F1SDGT6u73Tulq20PvmU-11" value="&lt;div style=&quot;text-align: center;&quot;&gt;&lt;span style=&quot;background-color: initial;&quot;&gt;特征值/向量&lt;/span&gt;&lt;/div&gt;" style="text;whiteSpace=wrap;html=1;" vertex="1" parent="1">
          <mxGeometry x="416.5" y="223.5" width="44" height="25" as="geometry" />
        </mxCell>
        <mxCell id="F1SDGT6u73Tulq20PvmU-12" value="" style="ellipse;whiteSpace=wrap;html=1;fillColor=#dae8fc;strokeColor=#6c8ebf;" vertex="1" parent="1">
          <mxGeometry x="495" y="218" width="79" height="44" as="geometry" />
        </mxCell>
        <mxCell id="F1SDGT6u73Tulq20PvmU-14" value="" style="ellipse;whiteSpace=wrap;html=1;fillColor=#dae8fc;strokeColor=#6c8ebf;" vertex="1" parent="1">
          <mxGeometry x="404" y="273" width="79" height="44" as="geometry" />
        </mxCell>
        <mxCell id="F1SDGT6u73Tulq20PvmU-15" value="&lt;div style=&quot;text-align: center;&quot;&gt;&lt;span style=&quot;background-color: initial;&quot;&gt;标准化&lt;/span&gt;&lt;/div&gt;" style="text;whiteSpace=wrap;html=1;" vertex="1" parent="1">
          <mxGeometry x="421.5" y="282.5" width="44" height="25" as="geometry" />
        </mxCell>
        <mxCell id="F1SDGT6u73Tulq20PvmU-7" value="" style="ellipse;whiteSpace=wrap;html=1;fillColor=#dae8fc;strokeColor=#6c8ebf;" vertex="1" parent="1">
          <mxGeometry x="86" y="233" width="79" height="44" as="geometry" />
        </mxCell>
        <mxCell id="F1SDGT6u73Tulq20PvmU-17" value="&lt;div&gt;行列式&lt;/div&gt;" style="text;html=1;align=center;verticalAlign=middle;whiteSpace=wrap;rounded=0;" vertex="1" parent="1">
          <mxGeometry x="101.5" y="242.5" width="48" height="25" as="geometry" />
        </mxCell>
        <mxCell id="F1SDGT6u73Tulq20PvmU-18" value="相似对角化" style="text;html=1;align=center;verticalAlign=middle;whiteSpace=wrap;rounded=0;" vertex="1" parent="1">
          <mxGeometry x="501.5" y="227" width="66" height="30" as="geometry" />
        </mxCell>
      </root>
    </mxGraphModel>
  </diagram>
</mxfile>
